<svg version="1.1" id="el_3sI9sEJIz" xmlns="http://www.w3.org/2000/svg" xmlns:xlink="http://www.w3.org/1999/xlink" x="0px" y="0px" viewBox="0 0 1000 1000" style="enable-background:new 0 0 1000 1000;" xml:space="preserve"><style>@-webkit-keyframes kf_el_pbKjGjuCHzA_an_tjA1hBtVa{0%{-webkit-transform: translate(73.88273429870605px, 831.800048828125px) rotate(0deg) translate(-73.88273429870605px, -831.800048828125px);transform: translate(73.88273429870605px, 831.800048828125px) rotate(0deg) translate(-73.88273429870605px, -831.800048828125px);}56.67%{-webkit-transform: translate(73.88273429870605px, 831.800048828125px) rotate(-1deg) translate(-73.88273429870605px, -831.800048828125px);transform: translate(73.88273429870605px, 831.800048828125px) rotate(-1deg) translate(-73.88273429870605px, -831.800048828125px);}90%{-webkit-transform: translate(73.88273429870605px, 831.800048828125px) rotate(0deg) translate(-73.88273429870605px, -831.800048828125px);transform: translate(73.88273429870605px, 831.800048828125px) rotate(0deg) translate(-73.88273429870605px, -831.800048828125px);}100%{-webkit-transform: translate(73.88273429870605px, 831.800048828125px) rotate(0deg) translate(-73.88273429870605px, -831.800048828125px);transform: translate(73.88273429870605px, 831.800048828125px) rotate(0deg) translate(-73.88273429870605px, -831.800048828125px);}}@keyframes kf_el_pbKjGjuCHzA_an_tjA1hBtVa{0%{-webkit-transform: translate(73.88273429870605px, 831.800048828125px) rotate(0deg) translate(-73.88273429870605px, -831.800048828125px);transform: translate(73.88273429870605px, 831.800048828125px) rotate(0deg) translate(-73.88273429870605px, -831.800048828125px);}56.67%{-webkit-transform: translate(73.88273429870605px, 831.800048828125px) rotate(-1deg) translate(-73.88273429870605px, -831.800048828125px);transform: translate(73.88273429870605px, 831.800048828125px) rotate(-1deg) translate(-73.88273429870605px, -831.800048828125px);}90%{-webkit-transform: translate(73.88273429870605px, 831.800048828125px) rotate(0deg) translate(-73.88273429870605px, -831.800048828125px);transform: translate(73.88273429870605px, 831.800048828125px) rotate(0deg) translate(-73.88273429870605px, -831.800048828125px);}100%{-webkit-transform: translate(73.88273429870605px, 831.800048828125px) rotate(0deg) translate(-73.88273429870605px, -831.800048828125px);transform: translate(73.88273429870605px, 831.800048828125px) rotate(0deg) translate(-73.88273429870605px, -831.800048828125px);}}@-webkit-keyframes kf_el_K7Ab89MN4Ij_an_SqZQPynlt{0%{-webkit-transform: translate(830.9178466796875px, 438.9411163330078px) rotate(0deg) translate(-830.9178466796875px, -438.9411163330078px);transform: translate(830.9178466796875px, 438.9411163330078px) rotate(0deg) translate(-830.9178466796875px, -438.9411163330078px);}41.67%{-webkit-transform: translate(830.9178466796875px, 438.9411163330078px) rotate(3deg) translate(-830.9178466796875px, -438.9411163330078px);transform: translate(830.9178466796875px, 438.9411163330078px) rotate(3deg) translate(-830.9178466796875px, -438.9411163330078px);}75%{-webkit-transform: translate(830.9178466796875px, 438.9411163330078px) rotate(0deg) translate(-830.9178466796875px, -438.9411163330078px);transform: translate(830.9178466796875px, 438.9411163330078px) rotate(0deg) translate(-830.9178466796875px, -438.9411163330078px);}100%{-webkit-transform: translate(830.9178466796875px, 438.9411163330078px) rotate(0deg) translate(-830.9178466796875px, -438.9411163330078px);transform: translate(830.9178466796875px, 438.9411163330078px) rotate(0deg) translate(-830.9178466796875px, -438.9411163330078px);}}@keyframes kf_el_K7Ab89MN4Ij_an_SqZQPynlt{0%{-webkit-transform: translate(830.9178466796875px, 438.9411163330078px) rotate(0deg) translate(-830.9178466796875px, -438.9411163330078px);transform: translate(830.9178466796875px, 438.9411163330078px) rotate(0deg) translate(-830.9178466796875px, -438.9411163330078px);}41.67%{-webkit-transform: translate(830.9178466796875px, 438.9411163330078px) rotate(3deg) translate(-830.9178466796875px, -438.9411163330078px);transform: translate(830.9178466796875px, 438.9411163330078px) rotate(3deg) translate(-830.9178466796875px, -438.9411163330078px);}75%{-webkit-transform: translate(830.9178466796875px, 438.9411163330078px) rotate(0deg) translate(-830.9178466796875px, -438.9411163330078px);transform: translate(830.9178466796875px, 438.9411163330078px) rotate(0deg) translate(-830.9178466796875px, -438.9411163330078px);}100%{-webkit-transform: translate(830.9178466796875px, 438.9411163330078px) rotate(0deg) translate(-830.9178466796875px, -438.9411163330078px);transform: translate(830.9178466796875px, 438.9411163330078px) rotate(0deg) translate(-830.9178466796875px, -438.9411163330078px);}}@-webkit-keyframes kf_el_pPT9JPqhWwt_an_lGSw1WbZB{0%{-webkit-transform: translate(838px, 374.88983154296875px) rotate(3deg) translate(-838px, -374.88983154296875px);transform: translate(838px, 374.88983154296875px) rotate(3deg) translate(-838px, -374.88983154296875px);}21.67%{-webkit-transform: translate(838px, 374.88983154296875px) rotate(2deg) translate(-838px, -374.88983154296875px);transform: translate(838px, 374.88983154296875px) rotate(2deg) translate(-838px, -374.88983154296875px);}41.67%{-webkit-transform: translate(838px, 374.88983154296875px) rotate(3deg) translate(-838px, -374.88983154296875px);transform: translate(838px, 374.88983154296875px) rotate(3deg) translate(-838px, -374.88983154296875px);}58.33%{-webkit-transform: translate(838px, 374.88983154296875px) rotate(2deg) translate(-838px, -374.88983154296875px);transform: translate(838px, 374.88983154296875px) rotate(2deg) translate(-838px, -374.88983154296875px);}75%{-webkit-transform: translate(838px, 374.88983154296875px) rotate(0deg) translate(-838px, -374.88983154296875px);transform: translate(838px, 374.88983154296875px) rotate(0deg) translate(-838px, -374.88983154296875px);}100%{-webkit-transform: translate(838px, 374.88983154296875px) rotate(0deg) translate(-838px, -374.88983154296875px);transform: translate(838px, 374.88983154296875px) rotate(0deg) translate(-838px, -374.88983154296875px);}}@keyframes kf_el_pPT9JPqhWwt_an_lGSw1WbZB{0%{-webkit-transform: translate(838px, 374.88983154296875px) rotate(3deg) translate(-838px, -374.88983154296875px);transform: translate(838px, 374.88983154296875px) rotate(3deg) translate(-838px, -374.88983154296875px);}21.67%{-webkit-transform: translate(838px, 374.88983154296875px) rotate(2deg) translate(-838px, -374.88983154296875px);transform: translate(838px, 374.88983154296875px) rotate(2deg) translate(-838px, -374.88983154296875px);}41.67%{-webkit-transform: translate(838px, 374.88983154296875px) rotate(3deg) translate(-838px, -374.88983154296875px);transform: translate(838px, 374.88983154296875px) rotate(3deg) translate(-838px, -374.88983154296875px);}58.33%{-webkit-transform: translate(838px, 374.88983154296875px) rotate(2deg) translate(-838px, -374.88983154296875px);transform: translate(838px, 374.88983154296875px) rotate(2deg) translate(-838px, -374.88983154296875px);}75%{-webkit-transform: translate(838px, 374.88983154296875px) rotate(0deg) translate(-838px, -374.88983154296875px);transform: translate(838px, 374.88983154296875px) rotate(0deg) translate(-838px, -374.88983154296875px);}100%{-webkit-transform: translate(838px, 374.88983154296875px) rotate(0deg) translate(-838px, -374.88983154296875px);transform: translate(838px, 374.88983154296875px) rotate(0deg) translate(-838px, -374.88983154296875px);}}@-webkit-keyframes kf_el_sk8qF8lF3V-_an_OkKoyT1ZH{0%{-webkit-transform: translate(85.4000015258789px, 826px) rotate(0deg) translate(-85.4000015258789px, -826px);transform: translate(85.4000015258789px, 826px) rotate(0deg) translate(-85.4000015258789px, -826px);}41.67%{-webkit-transform: translate(85.4000015258789px, 826px) rotate(2deg) translate(-85.4000015258789px, -826px);transform: translate(85.4000015258789px, 826px) rotate(2deg) translate(-85.4000015258789px, -826px);}75%{-webkit-transform: translate(85.4000015258789px, 826px) rotate(0deg) translate(-85.4000015258789px, -826px);transform: translate(85.4000015258789px, 826px) rotate(0deg) translate(-85.4000015258789px, -826px);}100%{-webkit-transform: translate(85.4000015258789px, 826px) rotate(0deg) translate(-85.4000015258789px, -826px);transform: translate(85.4000015258789px, 826px) rotate(0deg) translate(-85.4000015258789px, -826px);}}@keyframes kf_el_sk8qF8lF3V-_an_OkKoyT1ZH{0%{-webkit-transform: translate(85.4000015258789px, 826px) rotate(0deg) translate(-85.4000015258789px, -826px);transform: translate(85.4000015258789px, 826px) rotate(0deg) translate(-85.4000015258789px, -826px);}41.67%{-webkit-transform: translate(85.4000015258789px, 826px) rotate(2deg) translate(-85.4000015258789px, -826px);transform: translate(85.4000015258789px, 826px) rotate(2deg) translate(-85.4000015258789px, -826px);}75%{-webkit-transform: translate(85.4000015258789px, 826px) rotate(0deg) translate(-85.4000015258789px, -826px);transform: translate(85.4000015258789px, 826px) rotate(0deg) translate(-85.4000015258789px, -826px);}100%{-webkit-transform: translate(85.4000015258789px, 826px) rotate(0deg) translate(-85.4000015258789px, -826px);transform: translate(85.4000015258789px, 826px) rotate(0deg) translate(-85.4000015258789px, -826px);}}#el_3sI9sEJIz *{-webkit-animation-duration: 2s;animation-duration: 2s;-webkit-animation-iteration-count: infinite;animation-iteration-count: infinite;-webkit-animation-timing-function: cubic-bezier(0, 0, 1, 1);animation-timing-function: cubic-bezier(0, 0, 1, 1);}#el_cHpUltg70Q{fill: #F3F3F3;}#el_9KmnKZ_8qC{fill: #E1E1E1;}#el_uBvaHWkI08{fill: #FD8369;}#el_v_T3k_1UGI{fill: #FD8369;}#el_zMTmeeKEbs{fill: #FD8369;}#el_ugzQk5T6g-{fill: #FFFFFF;}#el_UzlznKuZRU{fill: #FFFFFF;}#el_ux_GXUdw_C{fill: #FFFFFF;}#el_TnEgBeYrw3{fill: #E1E1E1;}#el_LpP_aPFHNI{fill: #E1E1E1;}#el_kBqYJwvJf7{fill: #E1E1E1;}#el_6E7QpRNyCf{fill: #E1E1E1;}#el_iWiPZs4o_Z{fill: #DE8E68;}#el_cq_89Eezxk8{fill: #DE8E68;}#el_WPMoFNWiDiF{fill: #6FC9CE;}#el_0b5jo6BxP0x{fill: #DE8E68;}#el__lMvOyXn6yF{fill: #FEBF92;}#el_7mALpKNlE_D{fill: #FED892;}#el_8xk9MoXUS0u{fill: none;stroke: #000000;stroke-width: 0.95;stroke-miterlimit: 10;}#el_SHiNYFxD5mV{fill: none;stroke: #000000;stroke-width: 1.0746;stroke-linecap: round;stroke-miterlimit: 10;}#el_YsXYrfDFg-G{fill: #74D5DE;}#el__Z4WBO_rhH2{fill: #FD8369;}#el_BBgeGi6qiYv{fill: #FECC92;}#el_WOCzwV-zDHk{fill: #DE8E68;}#el_5wvpnUL3v5Y{fill: #FED892;}#el_7VXWuM4RBcv{fill: #D38466;}#el_-e5G69BRBIF{fill: #FD8369;}#el_3npJFQuRdOZ{fill: #DE8E68;}#el_pbKjGjuCHzA{fill: #6FC9CE;}#el_sk8qF8lF3V-{fill: #74D5DE;}#el_wiUNefMzI1C{fill: #FD8369;}#el_sk8qF8lF3V-_an_OkKoyT1ZH{-webkit-animation-fill-mode: backwards;animation-fill-mode: backwards;-webkit-transform: translate(85.4000015258789px, 826px) rotate(0deg) translate(-85.4000015258789px, -826px);transform: translate(85.4000015258789px, 826px) rotate(0deg) translate(-85.4000015258789px, -826px);-webkit-animation-name: kf_el_sk8qF8lF3V-_an_OkKoyT1ZH;animation-name: kf_el_sk8qF8lF3V-_an_OkKoyT1ZH;-webkit-animation-timing-function: cubic-bezier(0, 0, 1, 1);animation-timing-function: cubic-bezier(0, 0, 1, 1);}#el_pPT9JPqhWwt_an_lGSw1WbZB{-webkit-animation-fill-mode: backwards;animation-fill-mode: backwards;-webkit-transform: translate(838px, 374.88983154296875px) rotate(3deg) translate(-838px, -374.88983154296875px);transform: translate(838px, 374.88983154296875px) rotate(3deg) translate(-838px, -374.88983154296875px);-webkit-animation-name: kf_el_pPT9JPqhWwt_an_lGSw1WbZB;animation-name: kf_el_pPT9JPqhWwt_an_lGSw1WbZB;-webkit-animation-timing-function: cubic-bezier(0, 0, 0.58, 1);animation-timing-function: cubic-bezier(0, 0, 0.58, 1);}#el_0b5jo6BxP0x_an_krGJbmip8{-webkit-transform: translate(809.3999633789062px, 456.0500183105469px) rotate(0deg) translate(-809.3999633789062px, -456.0500183105469px);transform: translate(809.3999633789062px, 456.0500183105469px) rotate(0deg) translate(-809.3999633789062px, -456.0500183105469px);}#el_K7Ab89MN4Ij_an_SqZQPynlt{-webkit-animation-fill-mode: backwards;animation-fill-mode: backwards;-webkit-transform: translate(830.9178466796875px, 438.9411163330078px) rotate(0deg) translate(-830.9178466796875px, -438.9411163330078px);transform: translate(830.9178466796875px, 438.9411163330078px) rotate(0deg) translate(-830.9178466796875px, -438.9411163330078px);-webkit-animation-name: kf_el_K7Ab89MN4Ij_an_SqZQPynlt;animation-name: kf_el_K7Ab89MN4Ij_an_SqZQPynlt;-webkit-animation-timing-function: cubic-bezier(0.42, 0, 0.58, 1);animation-timing-function: cubic-bezier(0.42, 0, 0.58, 1);}#el_pbKjGjuCHzA_an_tjA1hBtVa{-webkit-animation-fill-mode: backwards;animation-fill-mode: backwards;-webkit-transform: translate(73.88273429870605px, 831.800048828125px) rotate(0deg) translate(-73.88273429870605px, -831.800048828125px);transform: translate(73.88273429870605px, 831.800048828125px) rotate(0deg) translate(-73.88273429870605px, -831.800048828125px);-webkit-animation-name: kf_el_pbKjGjuCHzA_an_tjA1hBtVa;animation-name: kf_el_pbKjGjuCHzA_an_tjA1hBtVa;-webkit-animation-timing-function: cubic-bezier(0.42, 0, 0.58, 1);animation-timing-function: cubic-bezier(0.42, 0, 0.58, 1);}</style>

<g id="el_OI24M75xGC">
	<rect x="109.9" y="43" width="727.7" height="717.3" id="el_cHpUltg70Q"/>
	<rect x="109.9" y="43" width="727.7" height="54.6" id="el_9KmnKZ_8qC"/>
	<circle cx="148.3" cy="71" r="8.6" id="el_uBvaHWkI08"/>
	<circle cx="176" cy="71" r="8.6" id="el_v_T3k_1UGI"/>
	<circle cx="203.7" cy="71" r="8.6" id="el_zMTmeeKEbs"/>
	<rect x="145.5" y="137.4" width="290.9" height="157.6" id="el_ugzQk5T6g-"/>
	<rect x="145.5" y="332.4" width="290.9" height="157.6" id="el_UzlznKuZRU"/>
	<rect x="507.2" y="332.4" width="290.9" height="339.9" id="el_ux_GXUdw_C"/>
	<rect x="486.9" y="148.8" width="399.4" height="15.2" id="el_TnEgBeYrw3"/>
	<rect x="486.9" y="191.7" width="399.4" height="15.2" id="el_LpP_aPFHNI"/>
	<rect x="486.9" y="234.6" width="399.4" height="15.2" id="el_kBqYJwvJf7"/>
	<rect x="486.9" y="277.5" width="399.4" height="15.2" id="el_6E7QpRNyCf"/>
</g>
<g id="el_nyuMJQbJ4B">
	<rect x="689.9" y="756.2" width="15.3" height="23.2" id="el_iWiPZs4o_Z"/>
	<rect x="870.2" y="854.2" width="15.3" height="23.2" id="el_cq_89Eezxk8"/>
	<path d="M802.2,541.5c-18.5,0-101.1,82.1-108.3,95.9c-7.2,13.8-5.1,121.9-5.1,121.9l17.8,3.4L735.5,662&#10;&#9;&#9;c12.6-1.5,65.6-12.9,93-35c27.4-22.2-2.6-71.7-2.6-71.7L802.2,541.5z" id="el_WPMoFNWiDiF"/>
	<g id="el_K7Ab89MN4Ij_an_SqZQPynlt" data-animator-group="true" data-animator-type="1"><g id="el_K7Ab89MN4Ij">
		<path d="M777.2,424.7c-9.1,8.1-33.2,33.7-34.7,36.3c-4.6-2.2-52.5-27.4-56.1-29s-11.2-14.3-13.8-14.3&#10;&#9;&#9;&#9;c-1.5,0-2.9,2.9-2.9,4.9c0,3.4,1.6,6,2.6,7.1c-3.4-0.5-33.4-2.8-33.4-0.8c0,5.2,33.6,12.1,36.2,13.5c2.6,1.4,57.3,52,76.3,52&#10;&#9;&#9;&#9;c7.4,0,40.1-22.2,40.1-24.6c3.1-2.1,17.9-5.5,17.9-5.5l-3.6-23.1l-17.8-2.5C788.8,433,779,423.1,777.2,424.7z" id="el_0b5jo6BxP0x"/>
		<path d="M770.1,424.2c2-16.2,39.3-53,56.4-36.6c14.9,14.3-12.1,65.4-19,67.4C799.7,455.8,769.6,435.2,770.1,424.2z" id="el__lMvOyXn6yF"/>
	</g></g>
	<path d="M883.9,390.5c19-8,45.6,36,42.6,52c0,7-39,22-45,18S864.9,398.5,883.9,390.5z" id="el_7mALpKNlE_D"/>
	<path d="M801.7,449.6" id="el_8xk9MoXUS0u"/>
	<path d="M854.7,340.5" id="el_SHiNYFxD5mV"/>
	<path d="M807.3,548.6l62.8,305.5h16.1l5.7-272.5c0-4.7-0.4-34.3-0.4-38.1C873.3,548.8,834.5,553,807.3,548.6z" id="el_YsXYrfDFg-G"/>
	<polygon points="870.2,877.4 885.5,877.4 885.5,894 843.3,894 &#9;" id="el_c6JkjqgpOvl"/>
	<polygon points="689.9,779.4 705.2,779.4 705.2,796 663,796 &#9;" id="el_TImIiQYhSIo"/>
	<rect x="598" y="796" width="182.1" height="106.6" id="el__Z4WBO_rhH2"/>
	<path d="M842.3,367c47,0,63.4,39.1,63.4,51.8c0,12.7-14.7,90.2-14.1,124.7c0.1,5.7-84.3,10.8-95.8,2.5&#10;&#9;&#9;C790.4,542.1,778.8,367,842.3,367z" id="el_BBgeGi6qiYv"/>
	<path d="M926.5,442.5c13.3,20.4,12.5,67.4,12.5,74.5s-49.6,70.9-53.9,70.9c-2.6-2.6-9.8-10.5-9.8-12.9&#10;&#9;&#9;c2.3-4.2,31.8-68.7,37.1-73.3c-2.4-2.9-23.5-36-24.4-41.5C906.5,457.1,924.4,449.3,926.5,442.5z" id="el_WOCzwV-zDHk"/>
	<path d="M926.5,442.5c3-16-21.3-62.4-42.6-52c-18.5,9.1-8.4,66-2.4,70C888.7,463.6,923.7,453.1,926.5,442.5z" id="el_5wvpnUL3v5Y"/>
	<g id="el_pPT9JPqhWwt_an_lGSw1WbZB" data-animator-group="true" data-animator-type="1"><g id="el_pPT9JPqhWwt">
		<path d="M830.3,357.4c-1,3.1-1.5,12.7-0.4,17c0.1,0.2,20,1.7,22.2-1.8c0.1-2.9,4.9-28.7,11.4-36.7&#10;&#9;&#9;&#9;c0.6-0.9-0.7-3.4-0.7-3.4l-23.1,9.6L830.3,357.4" id="el_7VXWuM4RBcv"/>
		<path d="M860.2,334.7c1.5,2,3.4,2.9,5.1,2.9c3.8,0,12.6-3.5,12.6-16c0-9-8.8-13.6-8.8-17.9c0-4.1,1.1-4.2,1.1-7.6&#10;&#9;&#9;&#9;c0-1.7-1.7-7.3-7-7.3c-3,0-4.1,2.5-7.1,2.5c-3.3,0-6.3-6.4-11.3-6.4c-3.4,0-6.6,3.2-10.2,3.2c-4.1,0-6.9-6.1-12.6-6.1&#10;&#9;&#9;&#9;c-5.9,0-8,5.3-10.3,5.3c-2.9,0-3.4-0.8-6.3-0.8c-1.8,0-7.3,3.2-7.3,9c0,4.1,1.7,10.8,10.2,10.8c5,0,7.8,7.9,12.2,7.9&#10;&#9;&#9;&#9;c1.7,0,3.2-1.4,3.6-0.7c1.7,3,5.2,11.2,5.2,11.2l15.9,8.9L860.2,334.7z" id="el_-e5G69BRBIF"/>
		<path d="M856.7,330.6c0,1.4-0.5,1.7-2.6,1.7c-1,0-2.4-1.3-2.4-2.7c0-3.3,2.4-4,2.4-8.3c0-7.3-19.1-11.1-25.8-14.9l0,0&#10;&#9;&#9;&#9;c-2.4,2.4-4.1,5.5-4.8,9l-4.3,22.1c-1.9,9.6,4.4,18.9,13.9,20.8s18.9-4.4,20.8-13.9l0.7-3.8l0,0c0.4,0.1,0.8,0.2,1.1,0.2&#10;&#9;&#9;&#9;c2.5,0,4.4-2.3,4.4-5.1C860.3,333.1,856.7,328.5,856.7,330.6z" id="el_3npJFQuRdOZ"/>
	</g></g>
	<g id="el_pbKjGjuCHzA_an_tjA1hBtVa" data-animator-group="true" data-animator-type="1"><path d="M114.8,781.9C94.5,646,44.8,574.7,38.5,577.4c-8.9,3.9-11.5,80.2,4.4,159c0.4,0,0.7-0.1,1.1-0.1&#10;&#9;&#9;c4.6,0,8.3,3.7,8.3,8.3c0,1.4-0.3,2.7-0.9,3.8c2.7,1.4,4.6,4.2,4.6,7.4c0,4-2.9,7.4-6.7,8.2c4.7,18.2,17.2,51.1,24.2,67.8&#10;&#9;&#9;c3.6,0,42.1-2.3,42.1-2.3S117.8,801.7,114.8,781.9z" id="el_pbKjGjuCHzA"/></g>
	<g id="el_sk8qF8lF3V-_an_OkKoyT1ZH" data-animator-group="true" data-animator-type="1"><path d="M232.3,637.8c-12.3,0-25.5,35.4-40.1,35.4c-3.2,0-5.3-3.5-5.3-6.8c0-3.2,10.1-38.4,10.1-55.5&#10;&#9;&#9;c0-1.5-0.1-3.1-0.3-4.7c-1.6,1-3.6,1.6-5.6,1.6c-6,0-10.9-4.9-10.9-10.9c0-5.3,3.7-9.6,8.7-10.7c-5.1-6.5-12.6-11.1-22.8-11.1&#10;&#9;&#9;c-12.9,0-31.1,11.5-31.1,29.3c0,5,1.5,17.7,1.5,29.2c0,65.2-51.1,75-51.1,147.2c0,15.2,12,41.1,14.5,45.2c0,0,36.1,0,40.2,0&#10;&#9;&#9;s40.5-64.3,44.3-70.2c14.5-22.4,62.7-47,62.7-100.5C247.1,647.8,244.4,637.8,232.3,637.8z" id="el_sk8qF8lF3V-"/></g>
	<polygon points="140.7,908.4 70.4,907.6 45.8,817.3 163.7,817.3 &#9;" id="el_wiUNefMzI1C"/>
</g>
</svg>