<?xml version="1.0" encoding="utf-8"?>
<!-- Generator: Adobe Illustrator 23.0.1, SVG Export Plug-In . SVG Version: 6.00 Build 0)  -->
<svg version="1.1" id="Layer_1" xmlns="http://www.w3.org/2000/svg" xmlns:xlink="http://www.w3.org/1999/xlink" x="0px" y="0px"
	 viewBox="0 0 201.6 34.1" style="enable-background:new 0 0 201.6 34.1;" xml:space="preserve">
<style type="text/css">
	.st0{fill:none;stroke:url(#SVGID_1_);stroke-width:2;stroke-miterlimit:10;}
	.st1{fill:none;stroke:url(#SVGID_2_);stroke-width:2;stroke-miterlimit:10;}
	.st2{fill:url(#SVGID_3_);}
</style>
<g>
	<g>
		
			<linearGradient id="SVGID_1_" gradientUnits="userSpaceOnUse" x1="-82.3178" y1="-123.1227" x2="-55.1846" y2="-123.1227" gradientTransform="matrix(-0.3392 0.9407 -0.9407 -0.3392 -122.7285 39.9352)">
			<stop  offset="6.900000e-02" style="stop-color:#FFD227"/>
			<stop  offset="0.443" style="stop-color:#FECF0C"/>
			<stop  offset="0.813" style="stop-color:#FDB81B"/>
			<stop  offset="0.976" style="stop-color:#FAA71F"/>
		</linearGradient>
		<polygon class="st0" points="4.9,23.7 4.9,10.4 16.4,3.8 27.9,10.4 27.9,23.7 16.4,30.3 		"/>
		
			<linearGradient id="SVGID_2_" gradientUnits="userSpaceOnUse" x1="-76.613" y1="-123.1227" x2="-60.8894" y2="-123.1227" gradientTransform="matrix(-0.3392 0.9407 -0.9407 -0.3392 -122.7285 39.9352)">
			<stop  offset="6.900000e-02" style="stop-color:#FFD227"/>
			<stop  offset="0.443" style="stop-color:#FECF0C"/>
			<stop  offset="0.813" style="stop-color:#FDB81B"/>
			<stop  offset="0.976" style="stop-color:#FAA71F"/>
		</linearGradient>
		<polygon class="st1" points="10.2,20.6 10.2,13.4 16.4,9.8 22.7,13.4 22.7,20.6 16.4,24.2 		"/>
		
			<linearGradient id="SVGID_3_" gradientUnits="userSpaceOnUse" x1="-9.8453" y1="13.568" x2="-13.4135" y2="17.1363" gradientTransform="matrix(0.9051 -0.4253 0.4253 0.9051 20.4122 -1.8116)">
			<stop  offset="6.900000e-02" style="stop-color:#FFD227"/>
			<stop  offset="0.443" style="stop-color:#FECF0C"/>
			<stop  offset="0.813" style="stop-color:#FDB81B"/>
			<stop  offset="0.976" style="stop-color:#FAA71F"/>
		</linearGradient>
		<polygon class="st2" points="14.1,18.4 14.1,15.7 16.4,14.3 18.7,15.7 18.7,18.4 16.4,19.7 		"/>
	</g>
	<g>
		<path d="M43.7,23.2c-1,0-1.9-0.2-2.7-0.5c-0.8-0.3-1.5-0.8-2-1.4c-0.5-0.6-1-1.3-1.2-2.1c-0.3-0.8-0.4-1.7-0.4-2.6v-0.1
			c0-1,0.2-1.8,0.5-2.6c0.3-0.8,0.8-1.5,1.3-2.1c0.6-0.6,1.2-1,2-1.4c0.8-0.3,1.7-0.5,2.6-0.5c0.7,0,1.3,0.1,2,0.2
			c0.6,0.2,1.2,0.4,1.7,0.8c0.5,0.4,0.9,0.8,1.2,1.3c0.3,0.5,0.5,1.2,0.6,2h-2.4c-0.1-0.9-0.5-1.5-1-1.9c-0.5-0.4-1.2-0.6-2.1-0.6
			c-0.6,0-1.2,0.1-1.7,0.3c-0.5,0.2-0.9,0.5-1.2,1c-0.3,0.4-0.6,0.9-0.8,1.5c-0.2,0.6-0.3,1.2-0.3,1.9v0.1c0,0.7,0.1,1.3,0.2,1.9
			c0.2,0.6,0.4,1.1,0.7,1.5s0.7,0.7,1.2,1c0.5,0.2,1.1,0.3,1.8,0.3c0.6,0,1.1-0.1,1.5-0.2s0.8-0.4,1.1-0.7s0.5-0.6,0.6-1
			c0.1-0.4,0.2-0.8,0.2-1.3h-3.2v-1.8h5.6v1.2c0,0.9-0.1,1.7-0.4,2.4s-0.7,1.3-1.2,1.8c-0.5,0.5-1.1,0.9-1.8,1.1
			S44.6,23.2,43.7,23.2z"/>
		<path d="M51.7,13.6h2.2v1.8c0.3-0.6,0.7-1.1,1.2-1.4s1.1-0.5,1.9-0.5v2c-0.5,0-0.9,0-1.3,0.1c-0.4,0.1-0.7,0.2-1,0.4
			c-0.3,0.2-0.5,0.5-0.6,0.8c-0.1,0.3-0.2,0.7-0.2,1.3V23h-2.2V13.6z"/>
		<path d="M63,23.2c-0.7,0-1.3-0.1-1.9-0.3c-0.6-0.2-1.1-0.6-1.5-1c-0.4-0.4-0.8-0.9-1-1.5s-0.4-1.2-0.4-2v-0.1c0-0.7,0.1-1.4,0.4-2
			c0.2-0.6,0.6-1.1,1-1.5c0.4-0.4,0.9-0.8,1.5-1c0.6-0.2,1.2-0.4,1.9-0.4c0.7,0,1.3,0.1,1.9,0.3s1.1,0.6,1.5,1
			c0.4,0.4,0.8,0.9,1,1.5c0.2,0.6,0.4,1.2,0.4,2v0.1c0,0.7-0.1,1.4-0.4,2s-0.6,1.1-1,1.5c-0.4,0.4-0.9,0.8-1.5,1
			C64.3,23,63.7,23.2,63,23.2z M63,21.4c0.8,0,1.5-0.3,1.9-0.8s0.7-1.3,0.7-2.3v-0.1c0-1-0.2-1.7-0.7-2.3c-0.5-0.6-1.1-0.8-1.9-0.8
			s-1.5,0.3-1.9,0.8c-0.5,0.6-0.7,1.3-0.7,2.3v0.1c0,1,0.2,1.7,0.7,2.3S62.2,21.4,63,21.4z"/>
		<path d="M68.6,13.6H71l1.9,6.8l2-6.8h1.8l1.8,6.8l2-6.8h2.1l-3,9.4h-2.2l-1.7-6.3L73.7,23h-2.2L68.6,13.6z"/>
		<path d="M85.4,12c-0.4,0-0.7-0.1-0.9-0.4c-0.3-0.2-0.4-0.5-0.4-0.9c0-0.4,0.1-0.7,0.4-0.9c0.3-0.2,0.6-0.4,0.9-0.4
			c0.4,0,0.7,0.1,0.9,0.4c0.3,0.2,0.4,0.5,0.4,0.9c0,0.3-0.1,0.6-0.4,0.9C86.1,11.9,85.8,12,85.4,12z M84.3,13.6h2.2V23h-2.2V13.6z"
			/>
		<path d="M89.2,13.6h2.2v1.5c0.2-0.5,0.6-0.9,1.1-1.2c0.5-0.3,1.2-0.5,1.9-0.5c0.5,0,0.9,0.1,1.3,0.2s0.7,0.4,1,0.7
			s0.5,0.7,0.7,1.1c0.2,0.5,0.2,1,0.2,1.7V23h-2.2v-5.7c0-0.7-0.2-1.2-0.5-1.6s-0.8-0.5-1.4-0.5c-0.6,0-1.1,0.2-1.6,0.6
			c-0.4,0.4-0.6,0.9-0.6,1.7V23h-2.2V13.6z"/>
		<path d="M104.3,26.4c-0.7,0-1.4-0.1-1.9-0.2c-0.5-0.2-1-0.4-1.4-0.7c-0.4-0.3-0.7-0.6-0.9-1s-0.3-0.8-0.4-1.3h2.2
			c0.1,0.5,0.3,0.8,0.7,1.1c0.4,0.3,0.9,0.4,1.6,0.4c0.9,0,1.5-0.2,2-0.6c0.4-0.4,0.7-1.1,0.7-1.9v-1.4c-0.1,0.2-0.3,0.4-0.5,0.7
			s-0.4,0.4-0.7,0.6c-0.3,0.2-0.6,0.3-0.9,0.4s-0.6,0.1-1,0.1c-0.6,0-1.1-0.1-1.6-0.3s-1-0.5-1.3-0.9c-0.4-0.4-0.7-0.9-0.9-1.4
			c-0.2-0.6-0.3-1.2-0.3-1.9V18c0-0.7,0.1-1.3,0.3-1.8c0.2-0.6,0.5-1.1,0.9-1.5c0.4-0.4,0.8-0.7,1.3-1c0.5-0.2,1.1-0.4,1.7-0.4
			c0.8,0,1.4,0.2,1.9,0.5c0.5,0.3,0.9,0.7,1.1,1.2v-1.4h2.2v8.7c0,1.4-0.4,2.4-1.3,3.1C106.9,26.1,105.7,26.4,104.3,26.4z
			 M104.3,20.9c0.8,0,1.4-0.3,1.9-0.8c0.5-0.5,0.7-1.2,0.7-2.1v-0.1c0-0.9-0.2-1.6-0.7-2.1c-0.4-0.5-1.1-0.7-1.9-0.7
			c-0.8,0-1.4,0.3-1.9,0.8c-0.4,0.5-0.7,1.2-0.7,2.1v0.1c0,0.4,0.1,0.8,0.2,1.2c0.1,0.4,0.3,0.7,0.5,0.9s0.5,0.4,0.8,0.6
			C103.7,20.9,104,20.9,104.3,20.9z"/>
		<path d="M116.3,10.1h2.9l5.4,9.3v-9.3h2.2V23h-2.5l-5.8-9.9V23h-2.2V10.1z"/>
		<path d="M133.6,23.2c-0.7,0-1.3-0.1-1.9-0.3c-0.6-0.2-1.1-0.5-1.5-1s-0.8-0.9-1-1.5c-0.2-0.6-0.4-1.3-0.4-2v-0.1
			c0-0.7,0.1-1.4,0.4-2c0.2-0.6,0.6-1.1,1-1.5c0.4-0.4,0.9-0.8,1.5-1c0.6-0.2,1.2-0.4,1.9-0.4c0.6,0,1.1,0.1,1.7,0.3
			c0.5,0.2,1,0.5,1.4,0.8c0.4,0.4,0.7,0.9,1,1.5c0.2,0.6,0.4,1.3,0.4,2.2v0.6h-6.9c0,0.9,0.3,1.6,0.7,2.1c0.4,0.5,1.1,0.7,1.9,0.7
			c0.7,0,1.2-0.1,1.5-0.4s0.6-0.6,0.6-1.1h2.1c-0.2,1-0.6,1.8-1.4,2.3S134.8,23.2,133.6,23.2z M135.8,17.3c-0.1-0.8-0.3-1.4-0.7-1.8
			c-0.4-0.4-0.9-0.6-1.6-0.6c-0.7,0-1.2,0.2-1.6,0.6c-0.4,0.4-0.7,1-0.8,1.7H135.8z"/>
		<path d="M143.2,23.1c-0.9,0-1.6-0.2-2.1-0.7c-0.5-0.5-0.7-1.2-0.7-2.1v-5.2h-1.3v-1.6h1.3v-2.1h2.2v2.1h2.1v1.6h-2.1v4.9
			c0,0.4,0.1,0.7,0.3,0.9c0.2,0.2,0.5,0.3,0.8,0.3c0.4,0,0.8-0.1,1.1-0.2v1.7c-0.2,0.1-0.4,0.1-0.6,0.2
			C143.8,23.1,143.5,23.1,143.2,23.1z"/>
		<path d="M145.8,13.6h2.3l1.9,6.8l2-6.8h1.8l1.8,6.8l2-6.8h2.1l-3,9.4h-2.2l-1.7-6.3l-1.9,6.3h-2.2L145.8,13.6z"/>
		<path d="M165.3,23.2c-0.7,0-1.3-0.1-1.9-0.3c-0.6-0.2-1.1-0.6-1.5-1c-0.4-0.4-0.8-0.9-1-1.5c-0.2-0.6-0.4-1.2-0.4-2v-0.1
			c0-0.7,0.1-1.4,0.4-2c0.2-0.6,0.6-1.1,1-1.5c0.4-0.4,0.9-0.8,1.5-1c0.6-0.2,1.2-0.4,1.9-0.4c0.7,0,1.3,0.1,1.9,0.3s1.1,0.6,1.5,1
			c0.4,0.4,0.8,0.9,1,1.5c0.2,0.6,0.4,1.2,0.4,2v0.1c0,0.7-0.1,1.4-0.4,2s-0.6,1.1-1,1.5c-0.4,0.4-0.9,0.8-1.5,1
			C166.7,23,166,23.2,165.3,23.2z M165.4,21.4c0.8,0,1.5-0.3,1.9-0.8s0.7-1.3,0.7-2.3v-0.1c0-1-0.2-1.7-0.7-2.3
			c-0.5-0.6-1.1-0.8-1.9-0.8s-1.5,0.3-1.9,0.8c-0.5,0.6-0.7,1.3-0.7,2.3v0.1c0,1,0.2,1.7,0.7,2.3S164.5,21.4,165.4,21.4z"/>
		<path d="M172.2,13.6h2.2v1.8c0.3-0.6,0.7-1.1,1.2-1.4c0.5-0.3,1.1-0.5,1.9-0.5v2c-0.5,0-0.9,0-1.3,0.1c-0.4,0.1-0.7,0.2-1,0.4
			c-0.3,0.2-0.5,0.5-0.6,0.8s-0.2,0.7-0.2,1.3V23h-2.2V13.6z"/>
		<path d="M179.4,9.2h2.2v8.5l3.4-4.1h2.4l-3.7,4.3l4,5.1h-2.5l-3.5-4.6V23h-2.2V9.2z"/>
		<path d="M192.3,23.2c-1.2,0-2.2-0.3-2.9-0.8s-1-1.3-1.1-2.3h2.1c0.1,0.5,0.2,0.9,0.5,1.1c0.3,0.3,0.7,0.4,1.4,0.4
			c0.6,0,1-0.1,1.3-0.3c0.3-0.2,0.4-0.5,0.4-0.9c0-0.4-0.2-0.7-0.5-0.8c-0.3-0.2-0.8-0.3-1.5-0.4c-0.6-0.1-1.2-0.2-1.6-0.4
			c-0.4-0.1-0.8-0.3-1.1-0.6c-0.3-0.2-0.5-0.5-0.6-0.8c-0.1-0.3-0.2-0.7-0.2-1.1c0-0.5,0.1-0.9,0.3-1.2c0.2-0.4,0.5-0.6,0.8-0.9
			c0.3-0.2,0.7-0.4,1.1-0.5c0.4-0.1,0.9-0.2,1.3-0.2c0.5,0,0.9,0,1.4,0.1s0.8,0.3,1.1,0.5c0.3,0.2,0.6,0.5,0.8,0.9s0.3,0.8,0.4,1.3
			h-2c-0.1-0.4-0.3-0.7-0.5-1c-0.3-0.2-0.6-0.3-1.1-0.3c-0.5,0-0.8,0.1-1.1,0.3c-0.3,0.2-0.4,0.5-0.4,0.8c0,0.2,0,0.3,0.1,0.4
			c0.1,0.1,0.2,0.2,0.3,0.3s0.4,0.2,0.6,0.2c0.3,0.1,0.6,0.1,0.9,0.2c0.6,0.1,1,0.2,1.5,0.3c0.4,0.1,0.8,0.3,1.1,0.5
			c0.3,0.2,0.5,0.5,0.7,0.8s0.2,0.7,0.2,1.3c0,1-0.3,1.7-1,2.2C194.4,22.9,193.5,23.2,192.3,23.2z"/>
	</g>
</g>
<g>
</g>
<g>
</g>
<g>
</g>
<g>
</g>
<g>
</g>
<g>
</g>
</svg>
